<svg width="582" height="90" viewBox="0 0 582 90" fill="none" xmlns="http://www.w3.org/2000/svg">
<path d="M2.91241 78.2041C5.68707 76.0461 9.62033 73.6651 12.6731 71.9909C13.6341 71.462 13.4076 72.1238 14.0787 71.7768C15.3953 71.0952 16.4123 70.1669 17.7276 69.5267C18.1655 69.3157 18.039 70.207 18.4898 69.9729C20.9491 68.6917 23.0243 67.1071 25.425 65.6818C32.7374 61.3397 39.8751 56.9074 46.9156 52.3134C51.5962 49.2381 56.5647 46.7534 61.5459 44.5735C65.8541 42.6745 71.2467 41.0981 75.2377 38.8599C75.7031 38.598 75.1584 38.2074 75.228 38.1194C76.3051 36.7576 76.3679 38.0541 77.3538 37.727C79.8448 36.8884 82.3158 35.6397 84.4318 34.1193C85.9996 32.9959 87.6434 32.1146 89.0806 31.3914C90.865 30.5306 88.6004 30.1941 90.6526 30.085C90.7933 30.0787 90.565 30.8363 91.0775 30.7122C92.2648 30.4103 94.321 29.6344 95.1634 29.4495C96.8484 29.0711 97.1006 29.0026 98.6682 28.6246C100.797 28.1252 103.386 27.9224 105.64 27.3937C106.119 27.2796 105.367 26.7557 106.127 26.517C106.9 26.2732 108.963 26.0125 109.685 26.0664C110.408 26.1174 110.179 26.6594 110.319 26.7565C111.455 27.5793 113.65 25.9459 113.964 25.8788C119.482 24.6674 124.355 25.0801 129.583 24.8124C133.556 24.6101 137.802 24.2383 141.588 24.2359C146.098 24.237 149.907 24.6221 154.282 24.6831C154.742 24.6908 154.224 23.9207 154.787 23.9289C160.803 24.0223 166.745 24.4398 172.688 25.4974C173.282 25.6046 172.449 26.1925 173.038 26.3392C175.128 26.8549 177.979 27.7504 180.4 27.9092C182.161 28.0263 183.756 27.8425 184.909 26.8622C187.431 27.4775 190.41 28.3899 192.402 29.606C193.683 30.391 192.126 30.6608 193.907 30.9006C194.309 30.958 194.006 30.1957 194.597 30.3294C197.089 30.8955 199.613 32.0306 202.053 32.6264C202.551 32.7464 202.627 32.1688 202.799 32.1261C204.234 31.7968 205.592 33.8209 205.954 34.0783C208.742 36.0258 211.062 36.7157 213.866 37.9649C214.516 38.2558 214.051 37.2202 214.688 37.4754C217.985 38.8075 221.296 40.365 224.312 42.0443C224.98 42.4181 224.08 42.7337 224.386 42.9429C225.751 43.8603 226.559 42.8748 227.871 43.7139C228.149 43.8894 227.766 44.3305 227.797 44.4096C228.283 45.65 229.55 44.7034 229.778 44.7635C229.941 44.8054 230.099 44.8509 230.252 44.8996C232.914 45.7569 234.192 47.6401 236.835 48.5428C237.171 48.6563 236.707 47.6999 237.635 48.0592C243.814 50.45 250.134 53.3944 255.921 56.4468C256.824 56.9219 255.951 57.1254 255.985 57.2106C256.543 58.5486 257.697 57.558 258.02 57.638C260.314 58.2434 262.009 59.9178 263.975 59.6484C264.187 59.6163 264.402 59.56 264.621 59.4755C274.448 64.0822 285.229 65.8911 295.606 69.3497C295.739 69.3921 295.37 70.0043 295.637 70.086C298.857 71.0664 298.406 69.919 300.791 69.0371C301.382 68.8141 302.793 70.6025 302.927 70.7368C303.401 71.2329 302.684 72.1287 302.853 72.2369C304.262 73.0981 304.513 69.8025 306.518 70.0996C306.58 70.1144 306.227 70.676 306.387 70.7606C306.884 71.0252 307.444 70.8623 307.925 71.1414C309.028 71.7845 309.238 73.4333 311.17 72.7459C311.413 72.6547 311.306 70.7582 313.091 71.0718C313.806 71.2022 316.98 71.5428 317.863 71.7573C318.742 71.975 318.065 72.5075 318.126 72.5404C320.444 73.59 319.499 73.8203 320.592 75.1187C321.693 76.4103 321.631 73.5855 322.153 73.322C322.674 73.0601 324.381 73.8792 324.798 74.1448C325.214 74.4115 324.636 74.7446 325.013 74.908C327.511 75.974 326.259 73.6188 327.14 73.2471C329.214 72.3616 330.598 74.5512 332.419 74.8824C332.91 74.9714 332.539 74.4712 332.982 74.457C334.734 74.4054 335.747 75.1196 337.765 74.6386C338.097 74.5607 339.764 73.3995 340.755 74.3661C340.896 74.5054 340.452 75.0027 341.19 75.1548C342.294 75.3834 344.295 75.5837 345.498 75.4554C346.386 75.3607 345.407 74.4698 346.507 74.7757C346.996 74.9117 346.063 75.3783 346.984 75.592C347.902 75.8067 350.266 75.8564 351.165 75.8607C352.064 75.8659 351.588 75.2059 351.662 75.1641C352.107 74.926 353.832 74.6512 353.983 74.6542C360.406 74.7136 366.425 75.4674 372.606 75.3855C373.803 75.369 374.949 75.3107 376.156 75.1942C376.736 75.138 376.314 74.4751 376.402 74.4595C378.356 74.0647 376.892 75.9684 378.337 76.4872C378.041 75.1164 378.893 75.3186 380.263 75.0509C380.936 74.9183 380.519 74.4154 380.576 74.3554C381.499 73.4556 382.278 74.431 382.48 74.6266C383.226 75.3452 383.845 74.3306 384.352 74.8018C384.865 75.2676 383.925 76.1716 385.266 75.9918C385.58 75.4504 384.416 74.295 385.406 73.9532C389.091 72.7242 396.234 72.2568 399.26 71.4823C402.263 70.7596 403.178 70.3558 404.951 69.9717C408.144 69.2423 406.697 68.7114 408.444 67.6216C410.177 66.5165 410.089 69.0681 410.54 69.4447C410.99 69.8193 411.102 69.2177 411.537 69.351C411.972 69.484 411.368 70.0854 412.196 69.8808C413.033 69.6767 414.849 67.9767 414.92 67.3697C415.078 66.0866 413.674 65.3892 415.876 64.9268C416.003 64.9005 415.861 65.6342 416.335 65.5042C420.099 64.4504 423.811 62.8154 427.543 61.6146C428.057 61.4505 427.901 62.278 428.203 62.1897C431.351 61.2747 429.813 60.6809 430.927 58.7735C431.254 60.5166 432.578 61.0793 434.837 60.1225C436.198 59.5503 435.669 58.9574 436.35 58.0965C436.412 58.0183 436.562 57.9705 436.742 57.9311C437.153 57.8432 437.73 57.7872 437.754 57.507C437.858 56.1887 436.451 55.422 438.902 54.8534C439.011 54.829 438.969 55.551 439.326 55.4239C441.641 54.5791 441.355 53.3601 443.592 51.9794C445.343 50.8965 448.913 49.6507 451.017 48.4994C451.984 50.1841 453.692 48.6147 453.765 46.9938C455.117 46.2205 456.506 45.2647 457.887 44.6259C458.362 44.4054 458.367 45.0629 458.455 45.0799C459.811 45.3597 459.702 43.8974 459.964 43.6763C462.826 41.3335 465.881 40.6452 468.476 38.0939C468.567 38.004 468.094 36.7219 469.397 37.1318C469.482 37.163 468.756 38.2557 470.233 37.5075C471.716 36.754 474.802 35.9837 476.639 34.4756C477.076 34.1101 477.955 32.5257 479.345 32.8859C479.53 32.9364 479.522 33.3567 479.804 33.4746C479.965 33.5406 480.092 33.5514 480.199 33.5285C480.689 33.425 480.762 32.5845 481.738 33.2198C482.924 33.9924 484.827 34.1633 486.657 32.5636C486.715 32.5149 486.818 31.3089 487.49 31.0557C488.572 30.6488 490.166 30.2462 491.281 29.7874C491.812 29.5685 491.22 29.0848 491.307 29.036C494.757 27.2351 497.534 26.7561 501.483 25.458C502.206 25.2214 503.9 23.5636 505.537 23.6954C507.328 23.8411 506.992 27.506 510.152 25.4287C511.425 24.5963 511.693 20.012 514.982 21.0761C519.079 19.0197 523.346 18.2874 527.478 16.5222L527.397 16.5448C528.013 16.3704 528.656 16.1669 529.276 15.9374C529.5 15.8556 529.99 14.5613 530.533 14.4627C531.352 14.3159 531.89 14.7586 532.48 14.6703C534.919 14.3206 537.02 13.395 539.353 12.9667C540.243 12.8019 540.048 13.4202 541.106 13.224C542.162 13.0272 542.704 12.1509 544.2 12.192C545.331 12.2251 546.727 13.4722 548.192 13.3314C547.924 11.859 548.91 11.6744 550.561 10.9048C550.879 10.7561 550.408 10.3272 550.553 10.2306C551.137 9.82643 551.825 10.1156 552.372 9.69476C552.505 9.59327 552.401 9.09323 552.503 8.98212C553.37 8.01874 555.319 8.75902 555.655 8.88834C556.94 9.37772 557.316 8.61172 558.24 8.70917C559.161 8.80686 557.965 9.46165 559.004 9.41186C561.161 9.3072 563.808 8.61376 565.917 8.14452C566.757 7.95441 566.03 7.4245 566.146 7.38187C567.842 6.80744 569.759 7.09669 570.406 5.54493C572.426 8.66961 571.37 4.96566 574.006 5.0442C574.215 5.05142 574.863 6.60204 574.166 7.02417C573.48 7.4431 572.219 7.21566 571.263 7.83587C571.043 7.9808 569.983 9.83365 569.815 9.97007C568.465 11.0475 567.689 8.67998 567.576 8.56682C566.331 7.34963 564.99 9.38313 564.56 9.60145C562.598 10.6014 560.749 10.6662 559.09 11.4313C558.005 11.9284 558.249 13.5391 557.343 13.6926C554.324 14.2029 552.794 12.2203 550.411 14.7606C549.9 15.3025 550.878 16.9066 548.42 16.0168C548.264 15.9609 546.388 15.064 545.636 16.0551C545.541 16.18 545.656 16.6848 545.511 16.7609C544.54 17.2603 543.767 17.0062 542.69 17.4415C541.608 17.8777 540.325 18.4557 539.007 18.5589C538.215 18.6216 537.02 17.8909 536.604 17.7382C535.419 17.2958 534.534 18.6245 533.717 17.9557C532.895 17.2837 533.91 15.7833 532.087 15.623C532.303 16.9522 532.444 18.3334 532.623 19.6781C531.151 19.9708 529.68 20.2014 528.21 20.4233L528.784 20.2639C526.588 20.8912 524.39 21.524 522.232 22.3541C521.793 22.5246 522.494 23.0373 522.03 23.2375C520.074 24.0801 518.151 24.2505 516.156 25.2289C514.614 25.9888 513.137 27.3781 511.539 28.2074C509.961 27.1692 507.672 28.6283 505.822 29.2116C505.172 29.4169 505.063 29.0181 504.565 29.0716C502.689 29.2847 503.986 30.2325 503.602 30.616C501.953 32.2586 500.639 29.4685 498.319 30.4839C498.199 30.5356 497.289 32.6718 497.12 32.8501C496.038 34.006 496.685 32.41 495.808 32.6335C494.202 33.0433 493.005 33.1055 491.397 34.2747C490.929 34.6177 490.061 36.0721 488.755 35.7466C488.584 35.7042 488.455 35.1713 488.335 35.1855C486.195 35.4785 486.782 37.0786 485.883 38.0626C484.99 39.0437 482.82 38.6433 482.349 38.4654C482.259 38.4322 482.185 38.4005 482.125 38.3703C481.88 38.2361 481.884 38.1338 481.999 38.0531C482.237 37.8901 482.919 37.7991 482.93 37.7377C483.087 36.8386 482.433 37.0071 481.686 37.2676C481.459 37.3463 481.221 37.4364 480.994 37.507C480.229 36.0109 478.97 36.6551 480.022 37.8241C480.137 37.9508 480.782 37.5101 480.994 37.507C480.813 39.3529 479.592 40.1022 477.424 39.4341C476.409 39.127 476.71 38.0326 474.677 39.3881C473.758 40.0109 474.663 40.8401 473.956 41.5619C472.355 43.2048 469.339 43.6747 467.437 44.9962C466.75 45.4737 467.77 45.602 467.313 45.9469C466.103 46.8642 464.714 47.1541 463.535 48.1619C463.428 48.2538 464.062 48.6385 463.661 48.8945C460.627 50.8493 457.719 52.1905 454.417 54.1938C452.826 55.1635 450.117 57.1985 448.345 58.1018C445.335 59.6687 441.159 60.7344 438.448 62.0509C438.414 62.0683 438.379 62.0858 438.345 62.1034C436.735 62.9364 437.36 63.3928 436.824 64.1078C435.8 65.4871 432.745 65.1255 432.315 65.0529C432.301 65.0494 433.675 64.2755 432.772 64.3026C432.042 63.8534 432.329 65.0431 432.315 65.0529C432.038 65.0027 429.099 66.1459 428.575 66.519C428.292 66.7211 428.721 67.2137 428.568 67.3083C424.935 69.5421 421.055 71.4471 416.851 72.8359C416.775 72.8534 416.62 72.1618 416.444 72.2108C413.968 72.8739 412.743 74.2551 410.91 75.4593C409.073 76.661 407.38 77.041 405.81 76.2822C404.326 76.9181 401.937 77.0638 400.584 77.0921C399.219 77.126 399.381 78.4823 399.272 78.5391C395.909 80.2698 393.621 79.9627 389.853 80.4818C388.043 80.7345 384.522 81.4033 382.574 81.7332C381.034 82.0044 380.086 81.7608 378.668 82.0614C378.475 82.1014 378.712 82.6929 378.654 82.7201C377.096 83.5439 377.781 82.016 377.438 81.7719C376.2 80.875 375.46 80.404 373.462 80.91C373.3 80.9499 373.037 81.236 372.722 81.5974C372.155 82.2779 371.419 83.2283 370.878 83.3177C369.8 83.4913 370.197 82.7219 369.069 82.9206C368.973 82.9367 368.998 83.4083 368.303 83.3945C365.062 83.3364 361.543 83.0622 358.177 83.0727C357.718 83.0722 358.298 83.8267 357.635 83.8381C354.517 83.8906 351.093 83.7877 348.07 83.3397C347.325 83.227 347.811 82.7189 347.654 82.5582C346.691 81.5858 345.235 82.8988 344.999 82.9153C339.409 83.3495 335.224 81.8797 329.526 82.0479C329.219 82.061 326.721 83.3352 325.766 81.9908C325.699 81.9013 324.769 80.5317 323.763 81.3232C323.701 81.3726 324.295 82.0915 323.16 81.9204C322.028 81.7495 320.148 82.0121 318.656 81.1244C318.183 80.8446 317.158 79.4473 315.568 80.2955C315.467 80.3575 312.913 82.387 312.285 80.7002C312.185 80.4225 312.53 78.7683 310.667 79.4025C310.31 79.5254 310.871 79.978 309.956 80.096C308.54 80.2765 306.817 79.5837 305.028 80.0799C304.718 80.1692 303.301 81.1166 302.438 80.1012C302.302 79.9422 302.687 79.4321 302.169 79.287C299.717 78.5949 297.044 78.5196 294.581 77.6611C293.71 77.3574 294.336 76.5495 293.455 76.1316C292.582 75.7162 290.749 75.1077 289.702 75.3108C288.647 75.5129 289.414 77.1619 287.918 76.959C281.431 76.0663 275.328 73.5899 269.129 71.3925C268.201 71.0605 268.807 71.8166 267.431 71.3546C265.44 70.6828 262.817 69.8085 260.195 68.7495C256.398 67.2219 252.49 65.4792 250.297 63.8235C247.383 61.6254 251.746 62.7477 249.398 61.3588C248.267 60.6913 246.305 61.6895 245.999 61.6164C242.96 60.9066 241.294 59.3791 238.673 58.5123C238.131 58.3332 238.376 59.181 237.918 59.0221C236.355 58.4856 234.879 57.5291 233.411 56.9731C232.752 56.7257 232.669 57.2572 232.088 56.9707C230.696 56.2909 229.52 55.5664 228.313 54.5442C228.202 54.451 229.305 54.1993 228.256 53.7449C227.831 53.5614 227.391 53.3427 226.935 53.1123C225.505 52.397 223.959 51.5558 222.298 51.25C221.645 51.1325 221.138 52.2163 220.189 50.9046C219.991 50.6299 220.902 49.4649 218.925 49.9509C218.592 50.0311 215.434 50.4635 214.664 48.9425C214.46 48.5422 214.124 47.1093 213.348 46.967C213.241 46.9518 213.361 47.7067 212.756 47.507C210.625 46.7923 208.521 45.7906 206.36 45.0815C205.782 44.8939 206.348 45.8579 205.497 45.5599C203.159 44.7411 200.404 43.4223 198.269 42.3769C197.484 41.9904 198.243 41.694 198.206 41.6154C197.595 40.3379 196.562 41.3563 196.222 41.3119C194.1 41.0173 192.81 39.9174 190.948 39.4923C190.436 39.3756 190.601 40.0849 190.485 40.1067C189.303 40.3085 190.398 39.4715 189.783 39.1523C188.061 38.2579 186.004 37.7525 184.159 37.4226C183.482 37.3037 184.076 38.178 183.476 38.0664C182.028 37.8062 180.582 37.5674 179.165 37.3591C176.896 37.0286 174.551 36.6489 172.338 36.2008C171.629 36.0569 172.132 35.5426 171.994 35.4014C171.029 34.4127 169.415 35.5007 169.057 35.589C167.417 35.9898 166.854 35.4537 165.437 35.4497C158.548 35.4342 150.045 34.8743 143.522 34.7141C135.038 34.5103 128.395 34.2478 120.392 35.0816C119.881 35.1358 120.463 35.83 120.026 35.8865C114.418 36.5855 108.852 37.0109 103.553 38.3347C103.116 38.4438 103.892 38.9996 103.204 39.1977C101.815 39.6046 100.063 39.9918 98.6223 40.1716C97.9339 40.2572 98.6498 39.4197 97.9582 39.5201C96.3352 39.7596 94.6904 40.273 93.3689 40.975C92.8149 41.2752 93.9569 41.5543 93.2425 41.8857C92.3299 42.3187 91.5014 42.8072 90.983 43.1973C85.5771 47.1336 79.8944 49.6448 74.2527 51.3413C73.7719 51.4848 72.7775 50.3221 71.9358 51.0012C72.0281 51.4052 72.2254 51.8412 72.3697 52.2529C65.5471 55.4302 59.1558 58.1192 53.4861 61.8464C51.1338 63.3933 48.7748 64.9341 46.424 66.4963C46.0575 66.74 47.123 66.9578 46.4148 67.4333C42.3332 70.1733 38.4911 72.9939 33.8954 75.1247C33.4403 75.3368 32.8951 74.0583 31.7915 75.0406C31.5979 75.2147 29.8647 76.5861 29.5545 77.1487C29.5148 77.2287 30.2027 77.5373 29.6219 77.9459C26.2447 80.3082 22.5692 82.5786 18.9493 84.5378C18.3628 84.8541 18.5705 83.8967 18.1499 84.1169C15.1757 85.6789 12.4589 88.1396 9.48755 89.4367C7.49846 90.3043 7.48821 88.8854 5.89094 88.5872C5.66191 88.5472 4.57166 89.2777 4.12448 88.7707C3.00677 87.4893 2.47775 85.5989 1.22389 84.2768C0.947274 83.9955 -0.267628 85.3631 0.0536573 83.989C0.0733244 83.8977 0.976335 82.884 1.05206 82.444C1.11016 82.1352 0.386739 81.8059 0.602369 81.3123C0.824032 80.8151 1.55626 81.0042 1.99539 80.2984C2.44051 79.5843 1.70393 79.1458 2.91241 78.2041ZM394.473 77.0955C393.16 76.7054 393.458 79.0865 394.639 78.2534C394.696 78.2101 394.541 77.1137 394.473 77.0955ZM525.193 19.2984C523.39 18.8227 522.928 20.6431 524.224 21.0404C525.515 21.4396 525.741 19.4428 525.193 19.2984ZM540.276 14.9167C538.331 14.4843 538.768 17.8609 540.517 16.7827C540.62 16.721 540.39 14.9416 540.276 14.9167ZM10.0477 85.3268C10.0207 85.3065 9.20771 85.8243 9.2086 85.862C9.21742 86.7763 10.8301 85.7491 10.0477 85.3268ZM555.634 10.6826C554.984 10.3584 553.514 11.2298 554.323 11.6339C554.974 11.959 556.444 11.0858 555.634 10.6826ZM332.388 76.051C332.371 76.0142 331.689 75.9342 331.689 76.1361C331.689 76.7872 332.657 76.6708 332.388 76.051ZM581.731 2.6506C581.153 3.69032 580.095 4.2746 579.297 4.35998C578.483 4.46305 577.876 4.24759 577.529 3.99827C576.773 3.45671 577.39 2.84602 578.627 2.31128C578.831 2.19858 578.787 2.52463 578.64 2.88862C578.501 3.2472 578.277 3.63509 578.742 3.56345C579.599 3.40665 579.92 2.63567 579.998 1.9981C580.093 1.33381 580.083 0.763345 580.703 0.0222815C580.812 -0.113858 581.206 0.391747 581.472 1.04947C581.751 1.69772 581.811 2.53764 581.731 2.65983C581.731 2.65675 581.731 2.65368 581.731 2.6506ZM393.207 74.4255C393.178 74.4002 392.24 74.5599 392.223 74.5943C391.862 75.4424 393.767 75.119 393.207 74.4255ZM293.007 69.5089C292.966 69.4346 290.836 68.9312 290.757 68.9752C289.376 69.9585 293.705 70.9867 293.007 69.5089ZM451.076 48.5239C451.558 47.3346 452.556 46.6131 453.76 46.9955C452.862 47.4918 451.98 48.027 451.076 48.5239Z" fill="white"/>
</svg>
