<svg width="168" height="168" viewBox="0 0 168 168" fill="none" xmlns="http://www.w3.org/2000/svg">
<path d="M59.5512 2.6637C59.1572 -0.0612876 62.9894 -1.08812 64.0107 1.46879L72.5759 22.9196C83.636 50.6183 112.235 67.13 141.753 62.859L164.612 59.5513C167.338 59.1572 168.364 62.9894 165.807 64.0108L144.356 72.576C116.658 83.636 100.146 112.235 104.417 141.753L107.725 164.612C108.119 167.338 104.287 168.364 103.265 165.807L94.7001 144.356C83.6402 116.658 55.041 100.146 25.5232 104.417L2.66365 107.725C-0.0613384 108.119 -1.08817 104.287 1.46874 103.266L22.9195 94.7003C50.6182 83.6402 67.13 55.0411 62.8589 25.5232L59.5512 2.6637Z" fill="white" fill-opacity="0.9"/>
</svg>
